# xmcd
#
# Track frame offsets:
#	150
#	13742
#	28084
#	49433
#	65838
#	82576
#	100302
#	115202
#	128168
#	145018
#	155789
#	167282
#	180317
#	193783
#	206258
#	221844
#
# Disc length: 3248 seconds
#
# Revision: 1
# Processed by: cddbd v1.5.2PL0 Copyright (c) Steve Scherf et al.
# Submitted via: audiograbber 1.83.01
#
DISCID=de0cae10
DTITLE=Denver, John - Thank God I'm A Country Boy
DYEAR=2009
DGENRE=Country
TTITLE0=Annie's Song
TTITLE1=Take Me Home, Country Roads
TTITLE2=Rocky Mountain High
TTITLE3=Leaving On A Jet Plane
TTITLE4=Like A Sad Song
TTITLE5=Some Days Are Diamonds
TTITLE6=City Of New Orleans
TTITLE7=Thank God I'm A Country Boy
TTITLE8=Goodbye Again
TTITLE9=Grandma's Feather Bed
TTITLE10=Mother Nature's Son
TTITLE11=This Old Guitar
TTITLE12=Please Daddy
TTITLE13=Late Nite Radio
TTITLE14=Gospel Changes
TTITLE15=Angels From Montgomery
EXTD=
EXTT0=
EXTT1=
EXTT2=
EXTT3=
EXTT4=
EXTT5=
EXTT6=
EXTT7=
EXTT8=
EXTT9=
EXTT10=
EXTT11=
EXTT12=
EXTT13=
EXTT14=
EXTT15=
PLAYORDER=
